<svg width="52" height="52" viewBox="0 0 52 52" fill="none" xmlns="http://www.w3.org/2000/svg">
<path d="M26 2.78333C32.2014 2.78333 38.0314 5.19807 42.4166 9.58336C46.8019 13.9686 49.2167 19.7986 49.2167 26C49.2167 32.2014 46.8019 38.0314 42.4166 42.4166C38.0314 46.8019 32.2014 49.2167 26 49.2167C19.7986 49.2167 13.9686 46.8019 9.58336 42.4166C5.19807 38.0314 2.78333 32.2014 2.78333 26C2.78333 19.7986 5.19807 13.9686 9.58336 9.58336C13.9686 5.19807 19.7986 2.78333 26 2.78333ZM26 0.95C12.1657 0.95 0.95 12.1657 0.95 26C0.95 39.8343 12.1657 51.05 26 51.05C39.8343 51.05 51.05 39.8343 51.05 26C51.05 12.1657 39.8343 0.95 26 0.95Z" fill="#231B22" stroke="#231B22" stroke-width="0.1"/>
</svg>
