<svg width="32" height="33" viewBox="0 0 32 33" fill="none" xmlns="http://www.w3.org/2000/svg">
<path d="M16 5.07067C19.4537 5.07067 22.7002 6.41533 25.1424 8.85759C27.5847 11.2998 28.9293 14.5463 28.9293 18C28.9293 21.4537 27.5847 24.7002 25.1424 27.1424C22.7002 29.5847 19.4537 30.9293 16 30.9293C12.5463 30.9293 9.29985 29.5847 6.85759 27.1424C4.41533 24.7002 3.07067 21.4537 3.07067 18C3.07067 14.5463 4.41533 11.2998 6.85759 8.85759C9.29985 6.41533 12.5463 5.07067 16 5.07067ZM16 3.9C8.21304 3.9 1.9 10.213 1.9 18C1.9 25.787 8.21304 32.1 16 32.1C23.787 32.1 30.1 25.787 30.1 18C30.1 10.213 23.787 3.9 16 3.9Z" fill="#F5F5FA" stroke="#F5F5FA" stroke-width="0.2"/>
</svg>
