<svg width="57" height="57" viewBox="0 0 57 57" fill="none" xmlns="http://www.w3.org/2000/svg">
<path d="M50.6906 25.7682L30.9332 29.2196L48.3066 19.2826L48.3504 19.2576L48.325 19.2141L47.4635 17.7356L47.4386 17.6927L47.3955 17.7174L30.0207 27.6551L42.9166 12.4294L42.9493 12.3909L42.9105 12.3586L41.5905 11.2609L41.5524 11.2292L41.5203 11.2671L28.6233 26.4942L35.4851 7.8174L35.5025 7.77019L35.4552 7.75312L33.8356 7.16883L33.7889 7.15196L33.7717 7.19862L26.9095 25.8778V6V5.95H26.8595H25.1366H25.0866V6V25.8777L18.2256 7.19862L18.2085 7.15196L18.1617 7.16883L16.5422 7.75312L16.4949 7.77019L16.5122 7.8174L23.3741 26.4955L10.4783 11.2684L10.4463 11.2306L10.4082 11.2622L9.08821 12.3599L9.04942 12.3922L9.08203 12.4307L21.9779 27.6564L4.60184 17.7174L4.55878 17.6927L4.53381 17.7356L3.67236 19.2141L3.64699 19.2576L3.69074 19.2826L21.0641 29.2196L1.30812 25.7682L1.25904 25.7597L1.2503 25.8087L0.950776 27.4894L0.941973 27.5388L0.991396 27.5474L20.7481 30.9987L0.991396 34.45L0.941973 34.4586L0.950776 34.508L1.2503 36.1887L1.25904 36.2377L1.30812 36.2291L21.0655 32.7778L3.69074 42.7161L3.64699 42.7411L3.67236 42.7846L4.53381 44.2631L4.55878 44.3059L4.60184 44.2813L21.9766 34.3436L9.0807 49.5693L9.04809 49.6078L9.08689 49.6401L10.4069 50.7378L10.445 50.7694L10.477 50.7316L23.3741 35.5045L16.5122 54.1826L16.4949 54.2298L16.5422 54.2469L18.1617 54.8312L18.2085 54.848L18.2256 54.8014L25.0879 36.1222V56V56.05H25.1379H26.8608H26.9108V56V36.1209L33.7731 54.8001L33.7902 54.8467L33.837 54.8299L35.4565 54.2456L35.5038 54.2285L35.4865 54.1813L28.6246 35.5032L41.5217 50.7303L41.5537 50.7681L41.5918 50.7365L42.9118 49.6388L42.9506 49.6065L42.918 49.568L30.0221 34.3422L47.3968 44.28L47.4399 44.3046L47.4649 44.2618L48.3263 42.7833L48.3517 42.7398L48.3079 42.7147L30.9345 32.7778L50.6919 36.2291L50.741 36.2377L50.7497 36.1887L51.0492 34.508L51.058 34.4586L51.0086 34.45L31.2519 30.9987L51.0086 27.5474L51.0043 27.4972L51.0479 27.4894L50.7484 25.8087L50.7396 25.7597L50.6906 25.7682ZM25.9993 34.8221C23.8676 34.8221 22.1397 33.1096 22.1397 30.9987C22.1397 28.8878 23.8676 27.1753 25.9993 27.1753C28.1311 27.1753 29.859 28.8878 29.859 30.9987C29.859 33.1096 28.1311 34.8221 25.9993 34.8221Z" fill="#231B22" stroke="#231B22" stroke-width="0.1"/>
</svg>
