<svg width="83" height="56" viewBox="0 0 83 56" fill="none" xmlns="http://www.w3.org/2000/svg">
<path d="M27.5136 15.9336H24.7227V18.3634C24.7227 18.6855 24.8697 18.9947 25.1313 19.2224L27.9223 21.6522L29.8952 19.9346L27.5135 17.8605L27.5136 15.9336Z" fill="black"/>
<path d="M13.5601 17.8605L11.1777 19.9346L13.1507 21.6522L15.9416 19.2224H15.9422C16.2039 18.9947 16.3509 18.6855 16.3509 18.3634V15.9336H13.56L13.5601 17.8605Z" fill="black"/>
<path d="M25.1313 27.2228C24.8697 27.4506 24.7227 27.7597 24.7227 28.0819V30.5116H27.5136V28.5846L29.8959 26.5106L27.923 24.793L25.1313 27.2228Z" fill="black"/>
<path d="M13.1507 24.793L11.1777 26.5106L13.5594 28.5846V30.5116H16.3504V28.0819C16.3504 27.7597 16.2034 27.4506 15.9417 27.2228L13.1507 24.793Z" fill="black"/>
<path d="M39.8358 20.1252L37.2821 16.7843V12.2893C37.2796 11.9671 37.1345 11.6585 36.8772 11.427L34.0863 8.9972C33.8202 8.7732 33.4658 8.64684 33.0957 8.64466H29.9142L28.8396 5.82601C28.6427 5.33463 28.1119 5.00379 27.5139 5H23.3275C22.9574 5.00217 22.603 5.12854 22.337 5.35254L20.5366 6.93188L18.7362 5.35254C18.4702 5.12854 18.1157 5.00218 17.7456 5H13.5592C12.9612 5.0038 12.4304 5.33464 12.2335 5.82601L11.1589 8.64466H7.97739C7.60735 8.64683 7.25287 8.7732 6.98687 8.9972L4.19593 11.427C3.93864 11.6585 3.79349 11.9671 3.79099 12.2893V16.7843L1.23736 20.1252C1.08224 20.3215 0.999382 20.5547 1 20.7934V25.6529C0.999381 25.8915 1.08224 26.1247 1.23736 26.3211L3.79099 29.6619V34.157C3.79348 34.4791 3.93863 34.7877 4.19593 35.0193L6.98687 37.4491C7.25288 37.6731 7.60735 37.7994 7.97739 37.8016H11.1589L12.2335 40.6203C12.4304 41.1116 12.9612 41.4425 13.5592 41.4463H17.7456C18.1157 41.4441 18.4702 41.3177 18.7362 41.0937L20.5366 39.5144L22.337 41.0937C22.603 41.3177 22.9574 41.4441 23.3275 41.4463H27.5139C28.1119 41.4425 28.6427 41.1116 28.8396 40.6203L29.9142 37.8016H33.0957C33.4658 37.7994 33.8203 37.6731 34.0863 37.4491L36.8772 35.0193C37.1345 34.7877 37.2796 34.4791 37.2821 34.157V29.6619L39.8358 26.3211C39.9909 26.1247 40.0737 25.8915 40.0731 25.6529V20.7934C40.0737 20.5547 39.9909 20.3215 39.8358 20.1252ZM19.1414 37.3043L17.174 39.017H14.5644L13.7551 36.9154L15.9461 35.0204L15.9455 35.0199C16.2028 34.7883 16.3479 34.4797 16.3504 34.1576V32.9427H13.5595V33.6597L11.5921 35.3724H8.54952L6.58215 33.6597V29.7959L8.96816 27.7307C9.22545 27.4991 9.3706 27.1905 9.3731 26.8683V25.6534H6.58216V26.3704L5.40971 27.3912L3.79129 25.2889V21.1583L5.40971 19.0567L6.58216 20.0774V20.7938H9.3731V19.579C9.37061 19.2568 9.22546 18.9482 8.96816 18.7166L6.58215 16.6513V12.7876L8.54952 11.0748H11.5915L13.5595 12.7876V13.5046H16.3504V12.2897C16.3479 11.9676 16.2028 11.659 15.9455 11.4274L13.7545 9.53245L14.5644 7.43023H17.174L19.1414 9.143V37.3043ZM37.2825 25.2889L35.664 27.3906L34.4916 26.3704V25.6534H31.7006V26.8683C31.7031 27.1904 31.8483 27.499 32.1056 27.7306L34.4916 29.7959V33.6591L32.5242 35.3724H29.4816L27.5143 33.6596V32.9426H24.7233V34.1575C24.7258 34.4797 24.871 34.7883 25.1283 35.0199L27.3192 36.9148L26.5094 39.017H23.8997L21.9324 37.3043V9.14268L23.8997 7.42991H26.5094L27.3186 9.53158L25.1276 11.4265L25.1283 11.4271C24.871 11.6586 24.7258 11.9672 24.7233 12.2894V13.5043H27.5143V12.7873L29.4816 11.0745H32.5236L34.4916 12.7873V16.6504L32.1056 18.7157V18.7163C31.8483 18.9479 31.7031 19.2565 31.7006 19.5786V20.7935H34.4916V20.0765L35.664 19.0558L37.2825 21.158V25.2889Z" fill="black"/>
<path d="M64.2364 39.3097L48.4322 21.5011C40.1538 9.44142 61.6027 -1.24365 63.7974 16.0702" stroke="black" stroke-width="2.5"/>
<path d="M62.8389 39.3097L79.1088 21.5011C87.3872 9.44142 65.9384 -1.24365 63.7436 16.0702" stroke="black" stroke-width="2.5"/>
<line x1="20.25" y1="44" x2="20.25" y2="52" stroke="black" stroke-width="2.5"/>
<line x1="19" y1="50.75" x2="64" y2="50.75" stroke="black" stroke-width="2.5"/>
<line x1="63.1562" y1="44" x2="63.1562" y2="52" stroke="black" stroke-width="2.5"/>
</svg>
