<svg width="50" height="50" viewBox="0 0 50 50" fill="none" xmlns="http://www.w3.org/2000/svg">
<path d="M48.7026 19.9755L29.7468 23.2869L46.4153 13.7531L46.4591 13.728L46.4337 13.6845L45.6067 12.2652L45.5818 12.2223L45.5387 12.2469L28.8688 21.7815L41.2415 7.17349L41.2741 7.13499L41.2353 7.10273L39.9681 6.04895L39.93 6.01727L39.898 6.05508L27.5241 20.6645L34.1076 2.74539L34.125 2.69819L34.0776 2.68112L32.5229 2.12019L32.4761 2.10332L32.459 2.14998L25.8751 20.0714V1V0.95H25.8251H24.1711H24.1211V1V20.0714L17.5385 2.14999L17.5213 2.10332L17.4746 2.12019L15.9198 2.68112L15.8725 2.69819L15.8899 2.74539L22.4733 20.6657L10.1007 6.05634L10.0687 6.01853L10.0306 6.05021L8.7634 7.10399L8.72461 7.13625L8.75722 7.17475L21.1299 21.7828L4.45876 12.2469L4.4157 12.2223L4.39073 12.2652L3.56374 13.6845L3.53836 13.728L3.58211 13.7531L20.2507 23.2869L1.29614 19.9755L1.24706 19.967L1.23832 20.016L0.950776 21.6295L0.941973 21.6789L0.991396 21.6875L19.9466 24.9987L0.991396 28.31L0.941973 28.3186L0.950776 28.368L1.23832 29.9815L1.24706 30.0305L1.29614 30.0219L20.252 26.7106L3.58211 36.2457L3.53836 36.2707L3.56374 36.3142L4.39073 37.7336L4.4157 37.7764L4.45876 37.7518L21.1287 28.2172L8.75595 42.8252L8.72334 42.8637L8.76213 42.896L10.0293 43.9498L10.0674 43.9815L10.0995 43.9437L22.4734 29.3342L15.8899 47.2546L15.8725 47.3018L15.9198 47.3189L17.4746 47.8798L17.5213 47.8967L17.5385 47.85L24.1224 29.9286V49V49.05H24.1724H25.8264H25.8764V49V29.9273L32.4603 47.8488L32.4774 47.8954L32.5242 47.8785L34.0789 47.3176L34.1262 47.3006L34.1089 47.2533L27.5254 29.333L39.8993 43.9424L39.9313 43.9802L39.9694 43.9485L41.2366 42.8947L41.2754 42.8625L41.2428 42.824L28.87 28.2159L45.54 37.7505L45.583 37.7752L45.608 37.7323L46.435 36.313L46.4604 36.2694L46.4166 36.2444L29.7481 26.7106L48.7039 30.0219L48.7529 30.0305L48.7617 29.9815L49.0492 28.368L49.058 28.3186L49.0086 28.31L30.0534 24.9987L49.0086 21.6875L49.0042 21.6373L49.048 21.6295L48.7604 20.016L48.7517 19.967L48.7026 19.9755ZM24.9994 28.6672C22.954 28.6672 21.2961 27.024 21.2961 24.9987C21.2961 22.9734 22.954 21.3303 24.9994 21.3303C27.0448 21.3303 28.7026 22.9734 28.7026 24.9987C28.7026 27.024 27.0448 28.6672 24.9994 28.6672Z" fill="#F5F5FA" stroke="#F5F5FA" stroke-width="0.1"/>
</svg>
